<?xml version="1.0" ?>
<mxfile host="65bd71144e">
	<diagram id="RFndyrCF2-3MIdXtw8gX" name="Page-1">
		<mxGraphModel dx="422" dy="816" grid="1" gridSize="10" guides="1" tooltips="1" connect="1" arrows="1" fold="1" page="1" pageScale="1" pageWidth="850" pageHeight="1100" math="0" shadow="0">
			<root>
				<mxCell id="0"/>
				<mxCell id="1" parent="0"/>
				<mxCell id="5213230832" value="&lt;b&gt;Module&lt;/b&gt;" style="whiteSpace=wrap;html=1;rounded=1;fillColor=#CC99FF;strokeColor=#000000" parent="1" vertex="1">
					<mxGeometry x="386.98" y="0.0" width="120" height="60" as="geometry"/>
				</mxCell>
				<mxCell id="5213239040" value="&lt;b&gt;FunctionDef&lt;/b&gt;&lt;br&gt;name: main" style="whiteSpace=wrap;html=1;rounded=1;fillColor=#66B2FF;strokeColor=#000000" parent="1" vertex="1">
					<mxGeometry x="386.98" y="93.60000000000001" width="120" height="60" as="geometry"/>
				</mxCell>
				<mxCell id="5213228384" value="&lt;b&gt;arguments&lt;/b&gt;" style="whiteSpace=wrap;html=1;rounded=1;fillColor=#E6E6E6;strokeColor=#000000" parent="1" vertex="1">
					<mxGeometry x="122.98" y="187.20000000000002" width="120" height="60" as="geometry"/>
				</mxCell>
				<mxCell id="5213232368" value="&lt;b&gt;Assign&lt;/b&gt;" style="whiteSpace=wrap;html=1;rounded=1;fillColor=#D6FFC9;strokeColor=#000000" parent="1" vertex="1">
					<mxGeometry x="254.98" y="187.20000000000002" width="120" height="60" as="geometry"/>
				</mxCell>
				<mxCell id="5213229872" value="&lt;b&gt;Name&lt;/b&gt;&lt;br&gt;id: y&lt;br&gt;ctx: Store" style="whiteSpace=wrap;html=1;rounded=1;fillColor=#CCE5FF;strokeColor=#000000" parent="1" vertex="1">
					<mxGeometry x="56.981" y="280.8" width="120" height="60" as="geometry"/>
				</mxCell>
				<mxCell id="5213233712" value="&lt;b&gt;Constant&lt;/b&gt;&lt;br&gt;value: 2" style="whiteSpace=wrap;html=1;rounded=1;fillColor=#FFF2CC;strokeColor=#000000" parent="1" vertex="1">
					<mxGeometry x="188.98" y="280.8" width="120" height="60" as="geometry"/>
				</mxCell>
				<mxCell id="5213232032" value="&lt;b&gt;Assign&lt;/b&gt;" style="whiteSpace=wrap;html=1;rounded=1;fillColor=#D6FFC9;strokeColor=#000000" parent="1" vertex="1">
					<mxGeometry x="386.98" y="187.20000000000002" width="120" height="60" as="geometry"/>
				</mxCell>
				<mxCell id="5213234384" value="&lt;b&gt;Name&lt;/b&gt;&lt;br&gt;id: x&lt;br&gt;ctx: Store" style="whiteSpace=wrap;html=1;rounded=1;fillColor=#CCE5FF;strokeColor=#000000" parent="1" vertex="1">
					<mxGeometry x="320.98" y="280.8" width="120" height="60" as="geometry"/>
				</mxCell>
				<mxCell id="5213230544" value="&lt;b&gt;Constant&lt;/b&gt;&lt;br&gt;value: 2" style="whiteSpace=wrap;html=1;rounded=1;fillColor=#FFF2CC;strokeColor=#000000" parent="1" vertex="1">
					<mxGeometry x="452.98" y="280.8" width="120" height="60" as="geometry"/>
				</mxCell>
				<mxCell id="5213232512" value="&lt;b&gt;Assign&lt;/b&gt;" style="whiteSpace=wrap;html=1;rounded=1;fillColor=#D6FFC9;strokeColor=#000000" parent="1" vertex="1">
					<mxGeometry x="584.98" y="187.20000000000002" width="120" height="60" as="geometry"/>
				</mxCell>
				<mxCell id="5213228096" value="&lt;b&gt;Name&lt;/b&gt;&lt;br&gt;id: z&lt;br&gt;ctx: Store" style="whiteSpace=wrap;html=1;rounded=1;fillColor=#CCE5FF;strokeColor=#000000" parent="1" vertex="1">
					<mxGeometry x="584.98" y="280.8" width="120" height="60" as="geometry"/>
				</mxCell>
				<mxCell id="4932168928" value="&lt;b&gt;BinOp&lt;/b&gt;" style="whiteSpace=wrap;html=1;rounded=1;fillColor=#CCCCFF;strokeColor=#000000" parent="1" vertex="1">
					<mxGeometry x="716.98" y="280.8" width="120" height="60" as="geometry"/>
				</mxCell>
				<mxCell id="4932166912" value="&lt;b&gt;Name&lt;/b&gt;&lt;br&gt;id: x&lt;br&gt;ctx: Load" style="whiteSpace=wrap;html=1;rounded=1;fillColor=#CCE5FF;strokeColor=#000000" parent="1" vertex="1">
					<mxGeometry x="518.98" y="374.40000000000003" width="120" height="60" as="geometry"/>
				</mxCell>
				<mxCell id="4376102320" value="&lt;b&gt;Add&lt;/b&gt;" style="whiteSpace=wrap;html=1;rounded=1;fillColor=#E6E6E6;strokeColor=#000000" parent="1" vertex="1">
					<mxGeometry x="650.98" y="374.40000000000003" width="120" height="60" as="geometry"/>
				</mxCell>
				<mxCell id="4932165184" value="&lt;b&gt;Name&lt;/b&gt;&lt;br&gt;id: y&lt;br&gt;ctx: Load" style="whiteSpace=wrap;html=1;rounded=1;fillColor=#CCE5FF;strokeColor=#000000" parent="1" vertex="1">
					<mxGeometry x="782.98" y="374.40000000000003" width="120" height="60" as="geometry"/>
				</mxCell>
				<mxCell id="4932171808" value="&lt;b&gt;Return&lt;/b&gt;" style="whiteSpace=wrap;html=1;rounded=1;fillColor=#D6FFC9;strokeColor=#000000" parent="1" vertex="1">
					<mxGeometry x="782.98" y="187.20000000000002" width="120" height="60" as="geometry"/>
				</mxCell>
				<mxCell id="4932163024" value="&lt;b&gt;Name&lt;/b&gt;&lt;br&gt;id: z&lt;br&gt;ctx: Load" style="whiteSpace=wrap;html=1;rounded=1;fillColor=#CCE5FF;strokeColor=#000000" parent="1" vertex="1">
					<mxGeometry x="914.98" y="374.40000000000003" width="120" height="60" as="geometry"/>
				</mxCell>
				<mxCell id="5213230832_5213239040" value="['body', 0]" style="endArrow=classic;html=1;strokeColor=#000000" parent="1" source="5213230832" target="5213239040" edge="1">
					<mxGeometry width="50" height="50" relative="1" as="geometry">
						<mxPoint x="400" y="440" as="sourcePoint"/>
						<mxPoint x="450" y="390" as="targetPoint"/>
					</mxGeometry>
				</mxCell>
				<mxCell id="5213239040_5213228384" value="['args']" style="endArrow=classic;html=1;strokeColor=#000000" parent="1" source="5213239040" target="5213228384" edge="1">
					<mxGeometry width="50" height="50" relative="1" as="geometry">
						<mxPoint x="400" y="440" as="sourcePoint"/>
						<mxPoint x="450" y="390" as="targetPoint"/>
					</mxGeometry>
				</mxCell>
				<mxCell id="5213239040_5213232368" value="['body', 0]" style="endArrow=classic;html=1;strokeColor=#000000" parent="1" source="5213239040" target="5213232368" edge="1">
					<mxGeometry width="50" height="50" relative="1" as="geometry">
						<mxPoint x="400" y="440" as="sourcePoint"/>
						<mxPoint x="450" y="390" as="targetPoint"/>
					</mxGeometry>
				</mxCell>
				<mxCell id="5213232368_5213229872" value="['targets', 0]" style="endArrow=classic;html=1;strokeColor=#000000" parent="1" source="5213232368" target="5213229872" edge="1">
					<mxGeometry width="50" height="50" relative="1" as="geometry">
						<mxPoint x="400" y="440" as="sourcePoint"/>
						<mxPoint x="450" y="390" as="targetPoint"/>
					</mxGeometry>
				</mxCell>
				<mxCell id="5213232368_5213233712" value="['value']" style="endArrow=classic;html=1;strokeColor=#000000" parent="1" source="5213232368" target="5213233712" edge="1">
					<mxGeometry width="50" height="50" relative="1" as="geometry">
						<mxPoint x="400" y="440" as="sourcePoint"/>
						<mxPoint x="450" y="390" as="targetPoint"/>
					</mxGeometry>
				</mxCell>
				<mxCell id="5213239040_5213232032" value="['body', 1]" style="endArrow=classic;html=1;strokeColor=#000000" parent="1" source="5213239040" target="5213232032" edge="1">
					<mxGeometry width="50" height="50" relative="1" as="geometry">
						<mxPoint x="400" y="440" as="sourcePoint"/>
						<mxPoint x="450" y="390" as="targetPoint"/>
					</mxGeometry>
				</mxCell>
				<mxCell id="5213232032_5213234384" value="['targets', 0]" style="endArrow=classic;html=1;strokeColor=#000000" parent="1" source="5213232032" target="5213234384" edge="1">
					<mxGeometry width="50" height="50" relative="1" as="geometry">
						<mxPoint x="400" y="440" as="sourcePoint"/>
						<mxPoint x="450" y="390" as="targetPoint"/>
					</mxGeometry>
				</mxCell>
				<mxCell id="5213232032_5213230544" value="['value']" style="endArrow=classic;html=1;strokeColor=#000000" parent="1" source="5213232032" target="5213230544" edge="1">
					<mxGeometry width="50" height="50" relative="1" as="geometry">
						<mxPoint x="400" y="440" as="sourcePoint"/>
						<mxPoint x="450" y="390" as="targetPoint"/>
					</mxGeometry>
				</mxCell>
				<mxCell id="5213239040_5213232512" value="['body', 2]" style="endArrow=classic;html=1;strokeColor=#000000" parent="1" source="5213239040" target="5213232512" edge="1">
					<mxGeometry width="50" height="50" relative="1" as="geometry">
						<mxPoint x="400" y="440" as="sourcePoint"/>
						<mxPoint x="450" y="390" as="targetPoint"/>
					</mxGeometry>
				</mxCell>
				<mxCell id="5213232512_5213228096" value="['targets', 0]" style="endArrow=classic;html=1;strokeColor=#000000" parent="1" source="5213232512" target="5213228096" edge="1">
					<mxGeometry width="50" height="50" relative="1" as="geometry">
						<mxPoint x="400" y="440" as="sourcePoint"/>
						<mxPoint x="450" y="390" as="targetPoint"/>
					</mxGeometry>
				</mxCell>
				<mxCell id="5213232512_4932168928" value="['value']" style="endArrow=classic;html=1;strokeColor=#000000" parent="1" source="5213232512" target="4932168928" edge="1">
					<mxGeometry width="50" height="50" relative="1" as="geometry">
						<mxPoint x="400" y="440" as="sourcePoint"/>
						<mxPoint x="450" y="390" as="targetPoint"/>
					</mxGeometry>
				</mxCell>
				<mxCell id="4932168928_4932166912" value="['left']" style="endArrow=classic;html=1;strokeColor=#000000" parent="1" source="4932168928" target="4932166912" edge="1">
					<mxGeometry width="50" height="50" relative="1" as="geometry">
						<mxPoint x="400" y="440" as="sourcePoint"/>
						<mxPoint x="450" y="390" as="targetPoint"/>
					</mxGeometry>
				</mxCell>
				<mxCell id="4932168928_4376102320" value="['op']" style="endArrow=classic;html=1;strokeColor=#000000" parent="1" source="4932168928" target="4376102320" edge="1">
					<mxGeometry width="50" height="50" relative="1" as="geometry">
						<mxPoint x="400" y="440" as="sourcePoint"/>
						<mxPoint x="450" y="390" as="targetPoint"/>
					</mxGeometry>
				</mxCell>
				<mxCell id="4932168928_4932165184" value="['right']" style="endArrow=classic;html=1;strokeColor=#000000" parent="1" source="4932168928" target="4932165184" edge="1">
					<mxGeometry width="50" height="50" relative="1" as="geometry">
						<mxPoint x="400" y="440" as="sourcePoint"/>
						<mxPoint x="450" y="390" as="targetPoint"/>
					</mxGeometry>
				</mxCell>
				<mxCell id="5213239040_4932171808" value="['body', 3]" style="endArrow=classic;html=1;strokeColor=#000000" parent="1" source="5213239040" target="4932171808" edge="1">
					<mxGeometry width="50" height="50" relative="1" as="geometry">
						<mxPoint x="400" y="440" as="sourcePoint"/>
						<mxPoint x="450" y="390" as="targetPoint"/>
					</mxGeometry>
				</mxCell>
				<mxCell id="4932171808_4932163024" value="['value']" style="endArrow=classic;html=1;strokeColor=#000000" parent="1" source="4932171808" target="4932163024" edge="1">
					<mxGeometry width="50" height="50" relative="1" as="geometry">
						<mxPoint x="400" y="440" as="sourcePoint"/>
						<mxPoint x="450" y="390" as="targetPoint"/>
					</mxGeometry>
				</mxCell>
				<mxCell id="stx_y_5213239040" value="&lt;b&gt;SyntaxToken&lt;/b&gt;&lt;br&gt;name: y&lt;br&gt;scope: main" style="whiteSpace=wrap;html=1;rounded=1;fillColor=#FFF2CC;strokeColor=#000000" parent="1" vertex="1">
					<mxGeometry x="-150" y="0.0" width="120" height="60" as="geometry"/>
				</mxCell>
				<mxCell id="stx_x_5213239040" value="&lt;b&gt;SyntaxToken&lt;/b&gt;&lt;br&gt;name: x&lt;br&gt;scope: main" style="whiteSpace=wrap;html=1;rounded=1;fillColor=#FFF2CC;strokeColor=#000000" parent="1" vertex="1">
					<mxGeometry x="-150" y="65.0" width="120" height="60" as="geometry"/>
				</mxCell>
				<mxCell id="stx_z_5213239040" value="&lt;b&gt;SyntaxToken&lt;/b&gt;&lt;br&gt;name: z&lt;br&gt;scope: main" style="whiteSpace=wrap;html=1;rounded=1;fillColor=#FFF2CC;strokeColor=#000000" parent="1" vertex="1">
					<mxGeometry x="-150" y="130.0" width="120" height="60" as="geometry"/>
				</mxCell>
				<mxCell id="stx_y_5213239040_5213229872" value="" style="edgeStyle=segmentEdgeStyle;endArrow=classic;html=1;rounded=1;endSize=8;startSize=8;entryX=0.25;entryY=0;entryDx=0;entryDy=0;opacity=40;shadow=0;dashed=1;jumpSize=6;strokeColor=#3333FF" parent="1" source="stx_y_5213239040" target="5213229872" edge="1">
					<mxGeometry width="50" height="50" relative="1" as="geometry">
						<mxPoint x="400" y="440" as="sourcePoint"/>
						<mxPoint x="450" y="390" as="targetPoint"/>
					</mxGeometry>
				</mxCell>
				<mxCell id="stx_y_5213239040_4932165184" value="" style="edgeStyle=segmentEdgeStyle;endArrow=classic;html=1;rounded=1;endSize=8;startSize=8;entryX=0.25;entryY=0;entryDx=0;entryDy=0;opacity=40;shadow=0;dashed=1;jumpSize=6;strokeColor=#3333FF" parent="1" source="stx_y_5213239040" target="4932165184" edge="1">
					<mxGeometry width="50" height="50" relative="1" as="geometry">
						<mxPoint x="400" y="440" as="sourcePoint"/>
						<mxPoint x="450" y="390" as="targetPoint"/>
					</mxGeometry>
				</mxCell>
				<mxCell id="stx_x_5213239040_5213234384" value="" style="edgeStyle=segmentEdgeStyle;endArrow=classic;html=1;rounded=1;endSize=8;startSize=8;entryX=0.25;entryY=0;entryDx=0;entryDy=0;opacity=40;shadow=0;dashed=1;jumpSize=6;strokeColor=#3333FF" parent="1" source="stx_x_5213239040" target="5213234384" edge="1">
					<mxGeometry width="50" height="50" relative="1" as="geometry">
						<mxPoint x="400" y="440" as="sourcePoint"/>
						<mxPoint x="450" y="390" as="targetPoint"/>
					</mxGeometry>
				</mxCell>
				<mxCell id="stx_x_5213239040_4932166912" value="" style="edgeStyle=segmentEdgeStyle;endArrow=classic;html=1;rounded=1;endSize=8;startSize=8;entryX=0.25;entryY=0;entryDx=0;entryDy=0;opacity=40;shadow=0;dashed=1;jumpSize=6;strokeColor=#3333FF" parent="1" source="stx_x_5213239040" target="4932166912" edge="1">
					<mxGeometry width="50" height="50" relative="1" as="geometry">
						<mxPoint x="400" y="440" as="sourcePoint"/>
						<mxPoint x="450" y="390" as="targetPoint"/>
					</mxGeometry>
				</mxCell>
				<mxCell id="stx_z_5213239040_5213228096" value="" style="edgeStyle=segmentEdgeStyle;endArrow=classic;html=1;rounded=1;endSize=8;startSize=8;entryX=0.25;entryY=0;entryDx=0;entryDy=0;opacity=40;shadow=0;dashed=1;jumpSize=6;strokeColor=#3333FF" parent="1" source="stx_z_5213239040" target="5213228096" edge="1">
					<mxGeometry width="50" height="50" relative="1" as="geometry">
						<mxPoint x="400" y="440" as="sourcePoint"/>
						<mxPoint x="450" y="390" as="targetPoint"/>
					</mxGeometry>
				</mxCell>
				<mxCell id="stx_z_5213239040_4932163024" value="" style="edgeStyle=segmentEdgeStyle;endArrow=classic;html=1;rounded=1;endSize=8;startSize=8;entryX=0.25;entryY=0;entryDx=0;entryDy=0;opacity=40;shadow=0;dashed=1;jumpSize=6;strokeColor=#3333FF" parent="1" source="stx_z_5213239040" target="4932163024" edge="1">
					<mxGeometry width="50" height="50" relative="1" as="geometry">
						<mxPoint x="400" y="440" as="sourcePoint"/>
						<mxPoint x="450" y="390" as="targetPoint"/>
					</mxGeometry>
				</mxCell>
			</root>
		</mxGraphModel>
	</diagram>
</mxfile>
